<?xml version="1.0" encoding="UTF-8" standalone="no"?>
<!DOCTYPE svg PUBLIC "-//W3C//DTD SVG 1.1//EN"
 "http://www.w3.org/Graphics/SVG/1.1/DTD/svg11.dtd">
<!-- Generated by graphviz version 2.49.1 (20211004.0028)
 -->
<!-- Title: snakemake_dag Pages: 1 -->
<svg width="654pt" height="337pt"
 viewBox="0.00 0.00 653.50 337.00" xmlns="http://www.w3.org/2000/svg" xmlns:xlink="http://www.w3.org/1999/xlink">
<g id="graph0" class="graph" transform="scale(1 1) rotate(0) translate(4 333)">
<title>snakemake_dag</title>
<polygon fill="white" stroke="transparent" points="-4,4 -4,-333 649.5,-333 649.5,4 -4,4"/>
<!-- 0 -->
<g id="node1" class="node">
<title>0</title>
<path fill="none" stroke="#d8a456" stroke-width="2" stroke-dasharray="5,2" d="M335,-36C335,-36 305,-36 305,-36 299,-36 293,-30 293,-24 293,-24 293,-12 293,-12 293,-6 299,0 305,0 305,0 335,0 335,0 341,0 347,-6 347,-12 347,-12 347,-24 347,-24 347,-30 341,-36 335,-36"/>
<text text-anchor="middle" x="320" y="-15.5" font-family="sans" font-size="10.00">all</text>
</g>
<!-- 1 -->
<g id="node2" class="node">
<title>1</title>
<path fill="none" stroke="#c6d856" stroke-width="2" stroke-dasharray="5,2" d="M164,-108C164,-108 48,-108 48,-108 42,-108 36,-102 36,-96 36,-96 36,-84 36,-84 36,-78 42,-72 48,-72 48,-72 164,-72 164,-72 170,-72 176,-78 176,-84 176,-84 176,-96 176,-96 176,-102 170,-108 164,-108"/>
<text text-anchor="middle" x="106" y="-87.5" font-family="sans" font-size="10.00">MakeSampleLookupTable</text>
</g>
<!-- 1&#45;&gt;0 -->
<g id="edge1" class="edge">
<title>1&#45;&gt;0</title>
<path fill="none" stroke="grey" stroke-width="2" d="M158.08,-71.97C196.81,-59.29 248.72,-42.31 283.21,-31.03"/>
<polygon fill="grey" stroke="grey" stroke-width="2" points="284.47,-34.3 292.89,-27.87 282.29,-27.65 284.47,-34.3"/>
</g>
<!-- 2 -->
<g id="node3" class="node">
<title>2</title>
<path fill="none" stroke="#56d8c9" stroke-width="2" stroke-dasharray="5,2" d="M132,-180C132,-180 12,-180 12,-180 6,-180 0,-174 0,-168 0,-168 0,-156 0,-156 0,-150 6,-144 12,-144 12,-144 132,-144 132,-144 138,-144 144,-150 144,-156 144,-156 144,-168 144,-168 144,-174 138,-180 132,-180"/>
<text text-anchor="middle" x="72" y="-159.5" font-family="sans" font-size="10.00">IndexSampleID_ColumnID</text>
</g>
<!-- 2&#45;&gt;1 -->
<g id="edge5" class="edge">
<title>2&#45;&gt;1</title>
<path fill="none" stroke="grey" stroke-width="2" d="M80.4,-143.7C84.27,-135.73 88.95,-126.1 93.24,-117.26"/>
<polygon fill="grey" stroke="grey" stroke-width="2" points="96.47,-118.63 97.69,-108.1 90.17,-115.57 96.47,-118.63"/>
</g>
<!-- 3 -->
<g id="node4" class="node">
<title>3</title>
<path fill="none" stroke="#78d856" stroke-width="2" stroke-dasharray="5,2" d="M282.5,-108C282.5,-108 223.5,-108 223.5,-108 217.5,-108 211.5,-102 211.5,-96 211.5,-96 211.5,-84 211.5,-84 211.5,-78 217.5,-72 223.5,-72 223.5,-72 282.5,-72 282.5,-72 288.5,-72 294.5,-78 294.5,-84 294.5,-84 294.5,-96 294.5,-96 294.5,-102 288.5,-108 282.5,-108"/>
<text text-anchor="middle" x="253" y="-87.5" font-family="sans" font-size="10.00">LeafcutterMD</text>
</g>
<!-- 3&#45;&gt;0 -->
<g id="edge2" class="edge">
<title>3&#45;&gt;0</title>
<path fill="none" stroke="grey" stroke-width="2" d="M269.56,-71.7C277.68,-63.22 287.59,-52.86 296.47,-43.58"/>
<polygon fill="grey" stroke="grey" stroke-width="2" points="299.24,-45.75 303.63,-36.1 294.19,-40.91 299.24,-45.75"/>
</g>
<!-- 4 -->
<g id="node5" class="node">
<title>4</title>
<path fill="none" stroke="#56d87b" stroke-width="2" stroke-dasharray="5,2" d="M299.5,-180C299.5,-180 174.5,-180 174.5,-180 168.5,-180 162.5,-174 162.5,-168 162.5,-168 162.5,-156 162.5,-156 162.5,-150 168.5,-144 174.5,-144 174.5,-144 299.5,-144 299.5,-144 305.5,-144 311.5,-150 311.5,-156 311.5,-156 311.5,-168 311.5,-168 311.5,-174 305.5,-180 299.5,-180"/>
<text text-anchor="middle" x="237" y="-159.5" font-family="sans" font-size="10.00">FilterLeafcutterNumerators</text>
</g>
<!-- 4&#45;&gt;3 -->
<g id="edge6" class="edge">
<title>4&#45;&gt;3</title>
<path fill="none" stroke="grey" stroke-width="2" d="M240.96,-143.7C242.72,-135.98 244.84,-126.71 246.8,-118.11"/>
<polygon fill="grey" stroke="grey" stroke-width="2" points="250.27,-118.63 249.09,-108.1 243.45,-117.07 250.27,-118.63"/>
</g>
<!-- 5 -->
<g id="node6" class="node">
<title>5</title>
<path fill="none" stroke="#d85656" stroke-width="2" stroke-dasharray="5,2" d="M295.5,-252C295.5,-252 178.5,-252 178.5,-252 172.5,-252 166.5,-246 166.5,-240 166.5,-240 166.5,-228 166.5,-228 166.5,-222 172.5,-216 178.5,-216 178.5,-216 295.5,-216 295.5,-216 301.5,-216 307.5,-222 307.5,-228 307.5,-228 307.5,-240 307.5,-240 307.5,-246 301.5,-252 295.5,-252"/>
<text text-anchor="middle" x="237" y="-231.5" font-family="sans" font-size="10.00">GetLeafcutterNumerators</text>
</g>
<!-- 5&#45;&gt;4 -->
<g id="edge7" class="edge">
<title>5&#45;&gt;4</title>
<path fill="none" stroke="grey" stroke-width="2" d="M237,-215.7C237,-207.98 237,-198.71 237,-190.11"/>
<polygon fill="grey" stroke="grey" stroke-width="2" points="240.5,-190.1 237,-180.1 233.5,-190.1 240.5,-190.1"/>
</g>
<!-- 6 -->
<g id="node7" class="node">
<title>6</title>
<path fill="none" stroke="#56a2d8" stroke-width="2" stroke-dasharray="5,2" d="M283.5,-329C283.5,-329 190.5,-329 190.5,-329 184.5,-329 178.5,-323 178.5,-317 178.5,-317 178.5,-300 178.5,-300 178.5,-294 184.5,-288 190.5,-288 190.5,-288 283.5,-288 283.5,-288 289.5,-288 295.5,-294 295.5,-300 295.5,-300 295.5,-317 295.5,-317 295.5,-323 289.5,-329 283.5,-329"/>
<text text-anchor="middle" x="237" y="-317" font-family="sans" font-size="10.00">GetLeafcutterCounts</text>
<text text-anchor="middle" x="237" y="-306" font-family="sans" font-size="10.00">data_source: GTEx</text>
<text text-anchor="middle" x="237" y="-295" font-family="sans" font-size="10.00">tissue: Bladder</text>
</g>
<!-- 6&#45;&gt;5 -->
<g id="edge8" class="edge">
<title>6&#45;&gt;5</title>
<path fill="none" stroke="grey" stroke-width="2" d="M237,-287.69C237,-279.91 237,-270.84 237,-262.45"/>
<polygon fill="grey" stroke="grey" stroke-width="2" points="240.5,-262.32 237,-252.32 233.5,-262.32 240.5,-262.32"/>
</g>
<!-- 7 -->
<g id="node8" class="node">
<title>7</title>
<path fill="none" stroke="#78d856" stroke-width="2" stroke-dasharray="5,2" d="M416.5,-108C416.5,-108 357.5,-108 357.5,-108 351.5,-108 345.5,-102 345.5,-96 345.5,-96 345.5,-84 345.5,-84 345.5,-78 351.5,-72 357.5,-72 357.5,-72 416.5,-72 416.5,-72 422.5,-72 428.5,-78 428.5,-84 428.5,-84 428.5,-96 428.5,-96 428.5,-102 422.5,-108 416.5,-108"/>
<text text-anchor="middle" x="387" y="-87.5" font-family="sans" font-size="10.00">LeafcutterMD</text>
</g>
<!-- 7&#45;&gt;0 -->
<g id="edge3" class="edge">
<title>7&#45;&gt;0</title>
<path fill="none" stroke="grey" stroke-width="2" d="M370.44,-71.7C362.32,-63.22 352.41,-52.86 343.53,-43.58"/>
<polygon fill="grey" stroke="grey" stroke-width="2" points="345.81,-40.91 336.37,-36.1 340.76,-45.75 345.81,-40.91"/>
</g>
<!-- 8 -->
<g id="node9" class="node">
<title>8</title>
<path fill="none" stroke="#56d87b" stroke-width="2" stroke-dasharray="5,2" d="M466.5,-180C466.5,-180 341.5,-180 341.5,-180 335.5,-180 329.5,-174 329.5,-168 329.5,-168 329.5,-156 329.5,-156 329.5,-150 335.5,-144 341.5,-144 341.5,-144 466.5,-144 466.5,-144 472.5,-144 478.5,-150 478.5,-156 478.5,-156 478.5,-168 478.5,-168 478.5,-174 472.5,-180 466.5,-180"/>
<text text-anchor="middle" x="404" y="-159.5" font-family="sans" font-size="10.00">FilterLeafcutterNumerators</text>
</g>
<!-- 8&#45;&gt;7 -->
<g id="edge9" class="edge">
<title>8&#45;&gt;7</title>
<path fill="none" stroke="grey" stroke-width="2" d="M399.8,-143.7C397.9,-135.9 395.62,-126.51 393.52,-117.83"/>
<polygon fill="grey" stroke="grey" stroke-width="2" points="396.92,-117 391.15,-108.1 390.11,-118.65 396.92,-117"/>
</g>
<!-- 9 -->
<g id="node10" class="node">
<title>9</title>
<path fill="none" stroke="#d85656" stroke-width="2" stroke-dasharray="5,2" d="M462.5,-252C462.5,-252 345.5,-252 345.5,-252 339.5,-252 333.5,-246 333.5,-240 333.5,-240 333.5,-228 333.5,-228 333.5,-222 339.5,-216 345.5,-216 345.5,-216 462.5,-216 462.5,-216 468.5,-216 474.5,-222 474.5,-228 474.5,-228 474.5,-240 474.5,-240 474.5,-246 468.5,-252 462.5,-252"/>
<text text-anchor="middle" x="404" y="-231.5" font-family="sans" font-size="10.00">GetLeafcutterNumerators</text>
</g>
<!-- 9&#45;&gt;8 -->
<g id="edge10" class="edge">
<title>9&#45;&gt;8</title>
<path fill="none" stroke="grey" stroke-width="2" d="M404,-215.7C404,-207.98 404,-198.71 404,-190.11"/>
<polygon fill="grey" stroke="grey" stroke-width="2" points="407.5,-190.1 404,-180.1 400.5,-190.1 407.5,-190.1"/>
</g>
<!-- 10 -->
<g id="node11" class="node">
<title>10</title>
<path fill="none" stroke="#56a2d8" stroke-width="2" stroke-dasharray="5,2" d="M450.5,-329C450.5,-329 357.5,-329 357.5,-329 351.5,-329 345.5,-323 345.5,-317 345.5,-317 345.5,-300 345.5,-300 345.5,-294 351.5,-288 357.5,-288 357.5,-288 450.5,-288 450.5,-288 456.5,-288 462.5,-294 462.5,-300 462.5,-300 462.5,-317 462.5,-317 462.5,-323 456.5,-329 450.5,-329"/>
<text text-anchor="middle" x="404" y="-317" font-family="sans" font-size="10.00">GetLeafcutterCounts</text>
<text text-anchor="middle" x="404" y="-306" font-family="sans" font-size="10.00">data_source: GTEx</text>
<text text-anchor="middle" x="404" y="-295" font-family="sans" font-size="10.00">tissue: Kidney</text>
</g>
<!-- 10&#45;&gt;9 -->
<g id="edge11" class="edge">
<title>10&#45;&gt;9</title>
<path fill="none" stroke="grey" stroke-width="2" d="M404,-287.69C404,-279.91 404,-270.84 404,-262.45"/>
<polygon fill="grey" stroke="grey" stroke-width="2" points="407.5,-262.32 404,-252.32 400.5,-262.32 407.5,-262.32"/>
</g>
<!-- 11 -->
<g id="node12" class="node">
<title>11</title>
<path fill="none" stroke="#78d856" stroke-width="2" stroke-dasharray="5,2" d="M566.5,-108C566.5,-108 507.5,-108 507.5,-108 501.5,-108 495.5,-102 495.5,-96 495.5,-96 495.5,-84 495.5,-84 495.5,-78 501.5,-72 507.5,-72 507.5,-72 566.5,-72 566.5,-72 572.5,-72 578.5,-78 578.5,-84 578.5,-84 578.5,-96 578.5,-96 578.5,-102 572.5,-108 566.5,-108"/>
<text text-anchor="middle" x="537" y="-87.5" font-family="sans" font-size="10.00">LeafcutterMD</text>
</g>
<!-- 11&#45;&gt;0 -->
<g id="edge4" class="edge">
<title>11&#45;&gt;0</title>
<path fill="none" stroke="grey" stroke-width="2" d="M495.42,-75.59C455.31,-62.65 395.2,-43.26 356.79,-30.87"/>
<polygon fill="grey" stroke="grey" stroke-width="2" points="357.63,-27.46 347.04,-27.72 355.49,-34.12 357.63,-27.46"/>
</g>
<!-- 12 -->
<g id="node13" class="node">
<title>12</title>
<path fill="none" stroke="#56d87b" stroke-width="2" stroke-dasharray="5,2" d="M633.5,-180C633.5,-180 508.5,-180 508.5,-180 502.5,-180 496.5,-174 496.5,-168 496.5,-168 496.5,-156 496.5,-156 496.5,-150 502.5,-144 508.5,-144 508.5,-144 633.5,-144 633.5,-144 639.5,-144 645.5,-150 645.5,-156 645.5,-156 645.5,-168 645.5,-168 645.5,-174 639.5,-180 633.5,-180"/>
<text text-anchor="middle" x="571" y="-159.5" font-family="sans" font-size="10.00">FilterLeafcutterNumerators</text>
</g>
<!-- 12&#45;&gt;11 -->
<g id="edge12" class="edge">
<title>12&#45;&gt;11</title>
<path fill="none" stroke="grey" stroke-width="2" d="M562.6,-143.7C558.73,-135.73 554.05,-126.1 549.76,-117.26"/>
<polygon fill="grey" stroke="grey" stroke-width="2" points="552.83,-115.57 545.31,-108.1 546.53,-118.63 552.83,-115.57"/>
</g>
<!-- 13 -->
<g id="node14" class="node">
<title>13</title>
<path fill="none" stroke="#d85656" stroke-width="2" stroke-dasharray="5,2" d="M629.5,-252C629.5,-252 512.5,-252 512.5,-252 506.5,-252 500.5,-246 500.5,-240 500.5,-240 500.5,-228 500.5,-228 500.5,-222 506.5,-216 512.5,-216 512.5,-216 629.5,-216 629.5,-216 635.5,-216 641.5,-222 641.5,-228 641.5,-228 641.5,-240 641.5,-240 641.5,-246 635.5,-252 629.5,-252"/>
<text text-anchor="middle" x="571" y="-231.5" font-family="sans" font-size="10.00">GetLeafcutterNumerators</text>
</g>
<!-- 13&#45;&gt;12 -->
<g id="edge13" class="edge">
<title>13&#45;&gt;12</title>
<path fill="none" stroke="grey" stroke-width="2" d="M571,-215.7C571,-207.98 571,-198.71 571,-190.11"/>
<polygon fill="grey" stroke="grey" stroke-width="2" points="574.5,-190.1 571,-180.1 567.5,-190.1 574.5,-190.1"/>
</g>
<!-- 14 -->
<g id="node15" class="node">
<title>14</title>
<path fill="none" stroke="#56a2d8" stroke-width="2" stroke-dasharray="5,2" d="M617.5,-329C617.5,-329 524.5,-329 524.5,-329 518.5,-329 512.5,-323 512.5,-317 512.5,-317 512.5,-300 512.5,-300 512.5,-294 518.5,-288 524.5,-288 524.5,-288 617.5,-288 617.5,-288 623.5,-288 629.5,-294 629.5,-300 629.5,-300 629.5,-317 629.5,-317 629.5,-323 623.5,-329 617.5,-329"/>
<text text-anchor="middle" x="571" y="-317" font-family="sans" font-size="10.00">GetLeafcutterCounts</text>
<text text-anchor="middle" x="571" y="-306" font-family="sans" font-size="10.00">data_source: GTEx</text>
<text text-anchor="middle" x="571" y="-295" font-family="sans" font-size="10.00">tissue: Muscle</text>
</g>
<!-- 14&#45;&gt;13 -->
<g id="edge14" class="edge">
<title>14&#45;&gt;13</title>
<path fill="none" stroke="grey" stroke-width="2" d="M571,-287.69C571,-279.91 571,-270.84 571,-262.45"/>
<polygon fill="grey" stroke="grey" stroke-width="2" points="574.5,-262.32 571,-252.32 567.5,-262.32 574.5,-262.32"/>
</g>
</g>
</svg>
