<?xml version="1.0" encoding="UTF-8" standalone="no"?>
<!DOCTYPE svg PUBLIC "-//W3C//DTD SVG 1.1//EN"
 "http://www.w3.org/Graphics/SVG/1.1/DTD/svg11.dtd">
<!-- Generated by graphviz version 2.49.1 (20211004.0028)
 -->
<!-- Title: snakemake_dag Pages: 1 -->
<svg width="157pt" height="265pt"
 viewBox="0.00 0.00 157.00 265.00" xmlns="http://www.w3.org/2000/svg" xmlns:xlink="http://www.w3.org/1999/xlink">
<g id="graph0" class="graph" transform="scale(1 1) rotate(0) translate(4 261)">
<title>snakemake_dag</title>
<polygon fill="white" stroke="transparent" points="-4,4 -4,-261 153,-261 153,4 -4,4"/>
<!-- 0 -->
<g id="node1" class="node">
<title>0</title>
<path fill="none" stroke="#d85656" stroke-width="2" stroke-dasharray="5,2" d="M104,-36C104,-36 45,-36 45,-36 39,-36 33,-30 33,-24 33,-24 33,-12 33,-12 33,-6 39,0 45,0 45,0 104,0 104,0 110,0 116,-6 116,-12 116,-12 116,-24 116,-24 116,-30 110,-36 104,-36"/>
<text text-anchor="middle" x="74.5" y="-15.5" font-family="sans" font-size="10.00">LeafcutterMD</text>
</g>
<!-- 1 -->
<g id="node2" class="node">
<title>1</title>
<path fill="none" stroke="#59d856" stroke-width="2" stroke-dasharray="5,2" d="M137,-108C137,-108 12,-108 12,-108 6,-108 0,-102 0,-96 0,-96 0,-84 0,-84 0,-78 6,-72 12,-72 12,-72 137,-72 137,-72 143,-72 149,-78 149,-84 149,-84 149,-96 149,-96 149,-102 143,-108 137,-108"/>
<text text-anchor="middle" x="74.5" y="-87.5" font-family="sans" font-size="10.00">FilterLeafcutterNumerators</text>
</g>
<!-- 1&#45;&gt;0 -->
<g id="edge1" class="edge">
<title>1&#45;&gt;0</title>
<path fill="none" stroke="grey" stroke-width="2" d="M74.5,-71.7C74.5,-63.98 74.5,-54.71 74.5,-46.11"/>
<polygon fill="grey" stroke="grey" stroke-width="2" points="78,-46.1 74.5,-36.1 71,-46.1 78,-46.1"/>
</g>
<!-- 2 -->
<g id="node3" class="node">
<title>2</title>
<path fill="none" stroke="#afd856" stroke-width="2" stroke-dasharray="5,2" d="M133,-180C133,-180 16,-180 16,-180 10,-180 4,-174 4,-168 4,-168 4,-156 4,-156 4,-150 10,-144 16,-144 16,-144 133,-144 133,-144 139,-144 145,-150 145,-156 145,-156 145,-168 145,-168 145,-174 139,-180 133,-180"/>
<text text-anchor="middle" x="74.5" y="-159.5" font-family="sans" font-size="10.00">GetLeafcutterNumerators</text>
</g>
<!-- 2&#45;&gt;1 -->
<g id="edge2" class="edge">
<title>2&#45;&gt;1</title>
<path fill="none" stroke="grey" stroke-width="2" d="M74.5,-143.7C74.5,-135.98 74.5,-126.71 74.5,-118.11"/>
<polygon fill="grey" stroke="grey" stroke-width="2" points="78,-118.1 74.5,-108.1 71,-118.1 78,-118.1"/>
</g>
<!-- 3 -->
<g id="node4" class="node">
<title>3</title>
<path fill="none" stroke="#56a9d8" stroke-width="2" stroke-dasharray="5,2" d="M121,-257C121,-257 28,-257 28,-257 22,-257 16,-251 16,-245 16,-245 16,-228 16,-228 16,-222 22,-216 28,-216 28,-216 121,-216 121,-216 127,-216 133,-222 133,-228 133,-228 133,-245 133,-245 133,-251 127,-257 121,-257"/>
<text text-anchor="middle" x="74.5" y="-245" font-family="sans" font-size="10.00">GetLeafcutterCounts</text>
<text text-anchor="middle" x="74.5" y="-234" font-family="sans" font-size="10.00">data_source: GTEx</text>
<text text-anchor="middle" x="74.5" y="-223" font-family="sans" font-size="10.00">tissue: Bladder</text>
</g>
<!-- 3&#45;&gt;2 -->
<g id="edge3" class="edge">
<title>3&#45;&gt;2</title>
<path fill="none" stroke="grey" stroke-width="2" d="M74.5,-215.69C74.5,-207.91 74.5,-198.84 74.5,-190.45"/>
<polygon fill="grey" stroke="grey" stroke-width="2" points="78,-190.32 74.5,-180.32 71,-190.32 78,-190.32"/>
</g>
</g>
</svg>
