<?xml version="1.0" encoding="UTF-8" standalone="no"?>
<!DOCTYPE svg PUBLIC "-//W3C//DTD SVG 1.1//EN"
 "http://www.w3.org/Graphics/SVG/1.1/DTD/svg11.dtd">
<!-- Generated by graphviz version 2.30.1 (20150305.2338)
 -->
<!-- Title: snakemake_dag Pages: 1 -->
<svg width="650pt" height="338pt"
 viewBox="0.00 0.00 650.00 338.00" xmlns="http://www.w3.org/2000/svg" xmlns:xlink="http://www.w3.org/1999/xlink">
<g id="graph0" class="graph" transform="scale(1 1) rotate(0) translate(4 334)">
<title>snakemake_dag</title>
<polygon fill="white" stroke="white" points="-4,5 -4,-334 647,-334 647,5 -4,5"/>
<!-- 0 -->
<g id="node1" class="node"><title>0</title>
<path fill="none" stroke="#56d8c9" stroke-width="2" stroke-dasharray="5,2" d="M333,-36C333,-36 303,-36 303,-36 297,-36 291,-30 291,-24 291,-24 291,-12 291,-12 291,-6 297,-0 303,-0 303,-0 333,-0 333,-0 339,-0 345,-6 345,-12 345,-12 345,-24 345,-24 345,-30 339,-36 333,-36"/>
<text text-anchor="middle" x="318" y="-15.5" font-family="sans" font-size="10.00">all</text>
</g>
<!-- 1 -->
<g id="node2" class="node"><title>1</title>
<path fill="none" stroke="#d8a456" stroke-width="2" stroke-dasharray="5,2" d="M164,-108C164,-108 48,-108 48,-108 42,-108 36,-102 36,-96 36,-96 36,-84 36,-84 36,-78 42,-72 48,-72 48,-72 164,-72 164,-72 170,-72 176,-78 176,-84 176,-84 176,-96 176,-96 176,-102 170,-108 164,-108"/>
<text text-anchor="middle" x="106" y="-87.5" font-family="sans" font-size="10.00">MakeSampleLookupTable</text>
</g>
<!-- 1&#45;&gt;0 -->
<g id="edge1" class="edge"><title>1&#45;&gt;0</title>
<path fill="none" stroke="grey" stroke-width="2" d="M157.59,-71.9656C195.852,-59.3318 247.091,-42.4132 281.258,-31.1319"/>
<polygon fill="grey" stroke="grey" points="282.449,-34.4244 290.847,-27.9655 280.254,-27.7774 282.449,-34.4244"/>
</g>
<!-- 2 -->
<g id="node3" class="node"><title>2</title>
<path fill="none" stroke="#56a2d8" stroke-width="2" stroke-dasharray="5,2" d="M132,-180C132,-180 12,-180 12,-180 6,-180 0,-174 0,-168 0,-168 0,-156 0,-156 0,-150 6,-144 12,-144 12,-144 132,-144 132,-144 138,-144 144,-150 144,-156 144,-156 144,-168 144,-168 144,-174 138,-180 132,-180"/>
<text text-anchor="middle" x="72" y="-159.5" font-family="sans" font-size="10.00">IndexSampleID_ColumnID</text>
</g>
<!-- 2&#45;&gt;1 -->
<g id="edge5" class="edge"><title>2&#45;&gt;1</title>
<path fill="none" stroke="grey" stroke-width="2" d="M80.4045,-143.697C84.2748,-135.728 88.9517,-126.1 93.2431,-117.264"/>
<polygon fill="grey" stroke="grey" points="96.4714,-118.629 97.6922,-108.104 90.1748,-115.57 96.4714,-118.629"/>
</g>
<!-- 3 -->
<g id="node4" class="node"><title>3</title>
<path fill="none" stroke="#78d856" stroke-width="2" stroke-dasharray="5,2" d="M281,-108C281,-108 223,-108 223,-108 217,-108 211,-102 211,-96 211,-96 211,-84 211,-84 211,-78 217,-72 223,-72 223,-72 281,-72 281,-72 287,-72 293,-78 293,-84 293,-84 293,-96 293,-96 293,-102 287,-108 281,-108"/>
<text text-anchor="middle" x="252" y="-87.5" font-family="sans" font-size="10.00">LeafcutterMD</text>
</g>
<!-- 3&#45;&gt;0 -->
<g id="edge2" class="edge"><title>3&#45;&gt;0</title>
<path fill="none" stroke="grey" stroke-width="2" d="M268.315,-71.6966C276.307,-63.2198 286.072,-52.8636 294.822,-43.5826"/>
<polygon fill="grey" stroke="grey" points="297.559,-45.7813 301.873,-36.1043 292.466,-40.9792 297.559,-45.7813"/>
</g>
<!-- 4 -->
<g id="node5" class="node"><title>4</title>
<path fill="none" stroke="#d85656" stroke-width="2" stroke-dasharray="5,2" d="M298,-180C298,-180 174,-180 174,-180 168,-180 162,-174 162,-168 162,-168 162,-156 162,-156 162,-150 168,-144 174,-144 174,-144 298,-144 298,-144 304,-144 310,-150 310,-156 310,-156 310,-168 310,-168 310,-174 304,-180 298,-180"/>
<text text-anchor="middle" x="236" y="-159.5" font-family="sans" font-size="10.00">FilterLeafcutterNumerators</text>
</g>
<!-- 4&#45;&gt;3 -->
<g id="edge6" class="edge"><title>4&#45;&gt;3</title>
<path fill="none" stroke="grey" stroke-width="2" d="M239.955,-143.697C241.718,-135.983 243.837,-126.712 245.803,-118.112"/>
<polygon fill="grey" stroke="grey" points="249.274,-118.633 248.09,-108.104 242.45,-117.073 249.274,-118.633"/>
</g>
<!-- 5 -->
<g id="node6" class="node"><title>5</title>
<path fill="none" stroke="#c6d856" stroke-width="2" stroke-dasharray="5,2" d="M294.25,-252C294.25,-252 177.75,-252 177.75,-252 171.75,-252 165.75,-246 165.75,-240 165.75,-240 165.75,-228 165.75,-228 165.75,-222 171.75,-216 177.75,-216 177.75,-216 294.25,-216 294.25,-216 300.25,-216 306.25,-222 306.25,-228 306.25,-228 306.25,-240 306.25,-240 306.25,-246 300.25,-252 294.25,-252"/>
<text text-anchor="middle" x="236" y="-231.5" font-family="sans" font-size="10.00">GetLeafcutterNumerators</text>
</g>
<!-- 5&#45;&gt;4 -->
<g id="edge7" class="edge"><title>5&#45;&gt;4</title>
<path fill="none" stroke="grey" stroke-width="2" d="M236,-215.697C236,-207.983 236,-198.712 236,-190.112"/>
<polygon fill="grey" stroke="grey" points="239.5,-190.104 236,-180.104 232.5,-190.104 239.5,-190.104"/>
</g>
<!-- 6 -->
<g id="node7" class="node"><title>6</title>
<path fill="none" stroke="#56d87b" stroke-width="2" stroke-dasharray="5,2" d="M282.25,-329.5C282.25,-329.5 189.75,-329.5 189.75,-329.5 183.75,-329.5 177.75,-323.5 177.75,-317.5 177.75,-317.5 177.75,-300.5 177.75,-300.5 177.75,-294.5 183.75,-288.5 189.75,-288.5 189.75,-288.5 282.25,-288.5 282.25,-288.5 288.25,-288.5 294.25,-294.5 294.25,-300.5 294.25,-300.5 294.25,-317.5 294.25,-317.5 294.25,-323.5 288.25,-329.5 282.25,-329.5"/>
<text text-anchor="middle" x="236" y="-317.5" font-family="sans" font-size="10.00">GetLeafcutterCounts</text>
<text text-anchor="middle" x="236" y="-306.5" font-family="sans" font-size="10.00">data_source: GTEx</text>
<text text-anchor="middle" x="236" y="-295.5" font-family="sans" font-size="10.00">tissue: Bladder</text>
</g>
<!-- 6&#45;&gt;5 -->
<g id="edge8" class="edge"><title>6&#45;&gt;5</title>
<path fill="none" stroke="grey" stroke-width="2" d="M236,-288.437C236,-280.391 236,-270.933 236,-262.228"/>
<polygon fill="grey" stroke="grey" points="239.5,-262.13 236,-252.13 232.5,-262.13 239.5,-262.13"/>
</g>
<!-- 7 -->
<g id="node8" class="node"><title>7</title>
<path fill="none" stroke="#78d856" stroke-width="2" stroke-dasharray="5,2" d="M414,-108C414,-108 356,-108 356,-108 350,-108 344,-102 344,-96 344,-96 344,-84 344,-84 344,-78 350,-72 356,-72 356,-72 414,-72 414,-72 420,-72 426,-78 426,-84 426,-84 426,-96 426,-96 426,-102 420,-108 414,-108"/>
<text text-anchor="middle" x="385" y="-87.5" font-family="sans" font-size="10.00">LeafcutterMD</text>
</g>
<!-- 7&#45;&gt;0 -->
<g id="edge3" class="edge"><title>7&#45;&gt;0</title>
<path fill="none" stroke="grey" stroke-width="2" d="M368.438,-71.6966C360.325,-63.2198 350.412,-52.8636 341.529,-43.5826"/>
<polygon fill="grey" stroke="grey" points="343.814,-40.9084 334.371,-36.1043 338.757,-45.7486 343.814,-40.9084"/>
</g>
<!-- 8 -->
<g id="node9" class="node"><title>8</title>
<path fill="none" stroke="#d85656" stroke-width="2" stroke-dasharray="5,2" d="M464,-180C464,-180 340,-180 340,-180 334,-180 328,-174 328,-168 328,-168 328,-156 328,-156 328,-150 334,-144 340,-144 340,-144 464,-144 464,-144 470,-144 476,-150 476,-156 476,-156 476,-168 476,-168 476,-174 470,-180 464,-180"/>
<text text-anchor="middle" x="402" y="-159.5" font-family="sans" font-size="10.00">FilterLeafcutterNumerators</text>
</g>
<!-- 8&#45;&gt;7 -->
<g id="edge9" class="edge"><title>8&#45;&gt;7</title>
<path fill="none" stroke="grey" stroke-width="2" d="M397.798,-143.697C395.904,-135.898 393.623,-126.509 391.516,-117.829"/>
<polygon fill="grey" stroke="grey" points="394.915,-116.996 389.154,-108.104 388.113,-118.648 394.915,-116.996"/>
</g>
<!-- 9 -->
<g id="node10" class="node"><title>9</title>
<path fill="none" stroke="#c6d856" stroke-width="2" stroke-dasharray="5,2" d="M460.25,-252C460.25,-252 343.75,-252 343.75,-252 337.75,-252 331.75,-246 331.75,-240 331.75,-240 331.75,-228 331.75,-228 331.75,-222 337.75,-216 343.75,-216 343.75,-216 460.25,-216 460.25,-216 466.25,-216 472.25,-222 472.25,-228 472.25,-228 472.25,-240 472.25,-240 472.25,-246 466.25,-252 460.25,-252"/>
<text text-anchor="middle" x="402" y="-231.5" font-family="sans" font-size="10.00">GetLeafcutterNumerators</text>
</g>
<!-- 9&#45;&gt;8 -->
<g id="edge10" class="edge"><title>9&#45;&gt;8</title>
<path fill="none" stroke="grey" stroke-width="2" d="M402,-215.697C402,-207.983 402,-198.712 402,-190.112"/>
<polygon fill="grey" stroke="grey" points="405.5,-190.104 402,-180.104 398.5,-190.104 405.5,-190.104"/>
</g>
<!-- 10 -->
<g id="node11" class="node"><title>10</title>
<path fill="none" stroke="#56d87b" stroke-width="2" stroke-dasharray="5,2" d="M448.25,-329.5C448.25,-329.5 355.75,-329.5 355.75,-329.5 349.75,-329.5 343.75,-323.5 343.75,-317.5 343.75,-317.5 343.75,-300.5 343.75,-300.5 343.75,-294.5 349.75,-288.5 355.75,-288.5 355.75,-288.5 448.25,-288.5 448.25,-288.5 454.25,-288.5 460.25,-294.5 460.25,-300.5 460.25,-300.5 460.25,-317.5 460.25,-317.5 460.25,-323.5 454.25,-329.5 448.25,-329.5"/>
<text text-anchor="middle" x="402" y="-317.5" font-family="sans" font-size="10.00">GetLeafcutterCounts</text>
<text text-anchor="middle" x="402" y="-306.5" font-family="sans" font-size="10.00">data_source: GTEx</text>
<text text-anchor="middle" x="402" y="-295.5" font-family="sans" font-size="10.00">tissue: Kidney</text>
</g>
<!-- 10&#45;&gt;9 -->
<g id="edge11" class="edge"><title>10&#45;&gt;9</title>
<path fill="none" stroke="grey" stroke-width="2" d="M402,-288.437C402,-280.391 402,-270.933 402,-262.228"/>
<polygon fill="grey" stroke="grey" points="405.5,-262.13 402,-252.13 398.5,-262.13 405.5,-262.13"/>
</g>
<!-- 11 -->
<g id="node12" class="node"><title>11</title>
<path fill="none" stroke="#78d856" stroke-width="2" stroke-dasharray="5,2" d="M563,-108C563,-108 505,-108 505,-108 499,-108 493,-102 493,-96 493,-96 493,-84 493,-84 493,-78 499,-72 505,-72 505,-72 563,-72 563,-72 569,-72 575,-78 575,-84 575,-84 575,-96 575,-96 575,-102 569,-108 563,-108"/>
<text text-anchor="middle" x="534" y="-87.5" font-family="sans" font-size="10.00">LeafcutterMD</text>
</g>
<!-- 11&#45;&gt;0 -->
<g id="edge4" class="edge"><title>11&#45;&gt;0</title>
<path fill="none" stroke="grey" stroke-width="2" d="M492.864,-75.6688C453.087,-62.7783 393.362,-43.4228 355.033,-31.0015"/>
<polygon fill="grey" stroke="grey" points="355.892,-27.6007 345.3,-27.8473 353.734,-34.2597 355.892,-27.6007"/>
</g>
<!-- 12 -->
<g id="node13" class="node"><title>12</title>
<path fill="none" stroke="#d85656" stroke-width="2" stroke-dasharray="5,2" d="M630,-180C630,-180 506,-180 506,-180 500,-180 494,-174 494,-168 494,-168 494,-156 494,-156 494,-150 500,-144 506,-144 506,-144 630,-144 630,-144 636,-144 642,-150 642,-156 642,-156 642,-168 642,-168 642,-174 636,-180 630,-180"/>
<text text-anchor="middle" x="568" y="-159.5" font-family="sans" font-size="10.00">FilterLeafcutterNumerators</text>
</g>
<!-- 12&#45;&gt;11 -->
<g id="edge12" class="edge"><title>12&#45;&gt;11</title>
<path fill="none" stroke="grey" stroke-width="2" d="M559.596,-143.697C555.725,-135.728 551.048,-126.1 546.757,-117.264"/>
<polygon fill="grey" stroke="grey" points="549.825,-115.57 542.308,-108.104 543.529,-118.629 549.825,-115.57"/>
</g>
<!-- 13 -->
<g id="node14" class="node"><title>13</title>
<path fill="none" stroke="#c6d856" stroke-width="2" stroke-dasharray="5,2" d="M626.25,-252C626.25,-252 509.75,-252 509.75,-252 503.75,-252 497.75,-246 497.75,-240 497.75,-240 497.75,-228 497.75,-228 497.75,-222 503.75,-216 509.75,-216 509.75,-216 626.25,-216 626.25,-216 632.25,-216 638.25,-222 638.25,-228 638.25,-228 638.25,-240 638.25,-240 638.25,-246 632.25,-252 626.25,-252"/>
<text text-anchor="middle" x="568" y="-231.5" font-family="sans" font-size="10.00">GetLeafcutterNumerators</text>
</g>
<!-- 13&#45;&gt;12 -->
<g id="edge13" class="edge"><title>13&#45;&gt;12</title>
<path fill="none" stroke="grey" stroke-width="2" d="M568,-215.697C568,-207.983 568,-198.712 568,-190.112"/>
<polygon fill="grey" stroke="grey" points="571.5,-190.104 568,-180.104 564.5,-190.104 571.5,-190.104"/>
</g>
<!-- 14 -->
<g id="node15" class="node"><title>14</title>
<path fill="none" stroke="#56d87b" stroke-width="2" stroke-dasharray="5,2" d="M614.25,-329.5C614.25,-329.5 521.75,-329.5 521.75,-329.5 515.75,-329.5 509.75,-323.5 509.75,-317.5 509.75,-317.5 509.75,-300.5 509.75,-300.5 509.75,-294.5 515.75,-288.5 521.75,-288.5 521.75,-288.5 614.25,-288.5 614.25,-288.5 620.25,-288.5 626.25,-294.5 626.25,-300.5 626.25,-300.5 626.25,-317.5 626.25,-317.5 626.25,-323.5 620.25,-329.5 614.25,-329.5"/>
<text text-anchor="middle" x="568" y="-317.5" font-family="sans" font-size="10.00">GetLeafcutterCounts</text>
<text text-anchor="middle" x="568" y="-306.5" font-family="sans" font-size="10.00">data_source: GTEx</text>
<text text-anchor="middle" x="568" y="-295.5" font-family="sans" font-size="10.00">tissue: Muscle</text>
</g>
<!-- 14&#45;&gt;13 -->
<g id="edge14" class="edge"><title>14&#45;&gt;13</title>
<path fill="none" stroke="grey" stroke-width="2" d="M568,-288.437C568,-280.391 568,-270.933 568,-262.228"/>
<polygon fill="grey" stroke="grey" points="571.5,-262.13 568,-252.13 564.5,-262.13 571.5,-262.13"/>
</g>
</g>
</svg>
